PathFileType	4	(X/Y/Z)	D:\TRACE\v60_Jaco2_6-2-23\JustArmDRS_Motion2_2-v60.trc
DataRate	CameraRate	NumFrames	NumMarkers	Units	OrigDataRate	OrigDataStartFrame	OrigNumFrames
100.00	100.00	      28	9	mm	100.00	4379	      7005
Frame#	Time	front left toe			Front right toe			aft left toe			aft right toe			Arm			FL body			FR body			AL Body			AR Body			
		X1	Y1	Z1	X2	Y2	Z2	X3	Y3	Z3	X4	Y4	Z4	X5	Y5	Z5	X6	Y6	Z6	X7	Y7	Z7	X8	Y8	Z8	X9	Y9	Z9	

4379	43.780	-241.73831	14.59834	-169.53233	165.43169	11.37362	-215.32637	-174.34448	27.79443	436.63089	228.26556	29.74640	423.49170	44.84209	1149.64648	-636.81616	-131.67604	588.29266	-310.48108	27.84889	589.67529	-329.12317	-19.52255	581.12384	628.02905	136.54784	577.27032	610.99219	
4380	43.790	-242.66995	14.20889	-170.00850	164.52290	10.87773	-215.70264	-175.26515	28.56065	436.41458	227.10324	30.38488	423.13016	43.27880	1148.53406	-638.05798	-132.48318	587.38733	-310.99991	26.31658	589.29895	-329.86322	-20.94813	582.21442	627.79169	134.70123	578.07220	610.50586	
4381	43.800	-243.35532	13.81481	-170.11938	163.78668	10.52159	-216.04268	-176.18643	29.29456	436.24673	226.29854	31.37145	422.80310	41.31322	1147.65112	-639.48291	-133.96991	586.97473	-311.89716	25.25871	588.92584	-330.59225	-22.36624	583.05652	627.05353	133.84912	579.48724	609.99139	
4382	43.810	-244.05946	13.22928	-170.41486	163.05602	10.11858	-216.28702	-177.07236	30.16471	435.78464	225.97511	32.20527	422.68851	39.75167	1146.88135	-641.01434	-134.96519	586.08722	-312.39038	24.64303	588.76422	-331.79370	-23.89140	583.83490	626.60126	131.83456	580.07318	609.17798	
4383	43.820	-244.86786	13.05447	-170.56268	162.39250	9.70901	-216.53616	-177.66579	30.99793	435.42578	225.00636	33.01971	422.51740	37.76338	1145.89355	-642.42090	-136.22070	585.74353	-313.25296	23.29216	588.29333	-332.48068	-25.37832	584.77423	625.87299	130.54037	581.26324	608.65100	
4384	43.830	-245.70685	12.67812	-170.98235	161.49916	9.18062	-216.90590	-178.42007	31.82412	435.27545	224.11732	33.75445	421.99063	36.13472	1144.99072	-643.63977	-137.05998	584.94556	-313.76904	22.31490	587.90027	-332.72849	-26.77806	585.42645	625.20697	129.50627	582.33167	608.23761	
4385	43.840	-246.34502	11.98381	-171.38850	161.22205	8.89264	-217.05009	-179.29231	32.71700	434.60205	223.62253	34.65121	421.91141	34.21616	1144.10474	-645.00092	-138.51314	584.60339	-314.65121	21.05227	587.34070	-333.62613	-28.39327	586.36328	624.45471	127.37561	582.97882	607.34460	
4386	43.850	-246.72318	11.50306	-171.50385	160.16959	8.40210	-217.50359	-180.19104	33.44564	434.32709	223.14339	35.47367	421.64328	32.65615	1143.33606	-646.53656	-139.31367	584.10144	-315.12219	20.12824	586.99908	-334.02652	-29.47404	587.01581	623.88361	126.34882	583.87659	606.94604	
4387	43.860	-247.44795	10.81948	-171.78743	159.69211	8.05772	-217.83232	-180.74040	34.16517	434.08279	222.00804	36.23273	421.12457	30.93456	1142.47034	-647.93176	-140.62119	583.40845	-315.93832	18.54875	586.32025	-334.47586	-30.98889	587.98578	623.12860	125.16782	585.12793	605.95422	
4388	43.870	-247.91064	10.57441	-172.08849	158.98186	7.64091	-218.07040	-181.30214	34.59782	433.85083	221.00311	36.88351	420.84933	29.55155	1141.72546	-649.28632	-141.60844	582.99542	-316.51425	17.51666	586.01825	-335.29807	-32.19627	588.71002	622.54803	124.11030	586.09070	605.54761	
4389	43.880	-248.70891	10.34876	-172.29436	158.54097	7.27255	-218.23627	-182.05130	35.33669	433.67752	221.03793	37.93634	420.56668	28.03306	1140.81213	-650.58148	-142.24715	582.26984	-316.91205	16.26274	585.69495	-335.80081	-33.39451	589.53229	621.42615	122.53609	586.70703	605.00098	
4390	43.890	-249.49706	9.97133	-172.58861	158.03328	6.96300	-218.43161	-182.64839	36.21491	433.27359	220.78528	38.65983	420.31122	26.80287	1140.11572	-651.96619	-143.83203	581.92462	-317.82617	14.99203	585.06030	-335.94507	-35.20741	590.27319	620.28217	121.52788	587.99530	604.26807	
4391	43.900	-249.73117	9.50435	-172.91544	157.35399	6.44147	-218.79250	-183.11739	37.06208	433.00839	220.11375	39.44007	419.94070	25.47273	1139.23389	-653.48743	-144.96442	581.40887	-318.74762	14.39224	584.74554	-337.11719	-35.75874	591.11102	620.22382	120.25975	588.88354	603.70392	
4392	43.910	-249.94905	9.01683	-173.21071	157.01286	6.07152	-218.98448	-183.26501	37.38557	432.89340	219.52614	40.09694	419.88776	23.90155	1138.39697	-654.81433	-145.79128	580.64990	-319.19077	13.17602	584.31982	-337.84851	-36.96965	592.26697	620.05072	119.33089	590.04041	602.98486	
4393	43.920	-250.32410	8.67843	-173.33374	156.83963	5.73023	-219.14894	-183.85323	38.15009	432.45868	219.11690	40.90728	419.46899	22.59461	1137.41260	-656.23547	-146.52606	580.37384	-319.72604	12.88512	584.10822	-338.08157	-38.18457	593.04730	619.29602	118.09464	590.92242	602.36420	
4394	43.930	-250.71179	8.28531	-173.57280	156.47983	5.30146	-219.49733	-184.29504	38.72758	432.24396	218.71367	41.59810	419.32864	21.23146	1136.52539	-657.56818	-147.42450	579.86505	-320.47397	12.05522	583.71124	-339.16745	-39.32075	593.83191	618.73090	116.90143	591.61365	602.02686	
4395	43.940	-251.16241	7.93389	-173.93011	156.10561	5.03107	-219.76138	-184.79323	39.48624	431.83487	218.18509	42.49711	418.97800	19.72172	1135.84167	-658.96149	-148.05042	579.15131	-321.08246	11.29625	583.40332	-339.79651	-40.21062	594.58319	618.16644	115.74478	592.59180	601.53973	
4396	43.950	-251.22575	7.54030	-174.05667	155.89153	4.87263	-219.92146	-185.03500	40.13802	431.62299	218.34050	43.07758	418.47430	18.63901	1135.07520	-660.11096	-149.23595	578.69440	-321.73245	10.76027	583.01355	-340.42581	-41.41926	595.31573	617.44836	115.19476	593.61896	600.78613	
4397	43.960	-251.29427	7.00487	-174.25589	155.63828	4.51694	-220.15895	-185.17320	40.68862	431.39191	218.29829	43.88240	418.36398	17.30876	1134.27063	-661.47510	-149.72591	578.38422	-322.21756	9.97818	582.34546	-340.98456	-42.27806	596.17102	616.89722	113.64770	594.19385	600.29431	
4398	43.970	-251.46027	6.42151	-174.53506	155.35007	3.86325	-220.54762	-185.44034	41.37963	430.98077	218.19443	44.53656	418.05249	16.04436	1133.67346	-662.70142	-150.01071	577.33014	-322.71451	9.38554	581.99622	-341.47604	-43.03245	596.60699	615.95233	113.22687	595.34778	599.70490	
4399	43.980	-251.61548	6.06270	-174.66870	155.42125	3.68971	-220.73618	-185.46286	41.76489	430.82111	218.03419	45.02888	417.89633	15.33470	1132.71753	-663.64703	-151.10902	577.03198	-323.51642	8.52110	581.73578	-342.17398	-44.40288	597.45892	615.59851	112.19365	596.07788	598.88507	
4400	43.990	-251.82800	5.72334	-174.91563	155.55038	3.37653	-220.89636	-185.43541	42.27934	430.63644	217.97223	45.81958	417.53967	14.29295	1131.88965	-665.10974	-151.43254	576.74713	-323.97766	7.90452	581.32977	-342.69766	-44.75929	598.05151	615.10095	110.89127	596.92432	598.55353	
4401	44.000	-251.96599	5.52720	-175.16037	155.53185	3.11748	-221.14592	-185.49875	42.92770	430.30878	217.81960	46.42396	417.54843	13.55492	1131.17676	-666.22839	-152.17883	576.15448	-324.58603	7.38626	581.13226	-343.21445	-45.97784	599.04242	614.34436	110.12776	597.53400	598.24780	
4402	44.010	-251.80754	5.23628	-175.50587	155.29474	2.66671	-221.40582	-185.68811	43.65854	429.88208	217.75182	47.17049	417.12994	12.59932	1130.45667	-667.28418	-153.07715	575.96820	-325.37347	6.76825	580.86200	-343.97717	-46.65286	599.66589	613.86853	109.30882	598.27167	597.72552	
4403	44.020	-251.84822	5.00492	-175.71182	155.32321	2.37462	-221.58382	-185.66435	43.91281	429.70490	217.38196	47.57306	416.78473	11.55150	1129.93982	-668.62109	-153.26625	575.38794	-325.68814	6.33539	580.42267	-344.44040	-47.39650	600.46210	613.27264	108.38375	599.25323	596.99921	
4404	44.030	-251.88023	4.70560	-175.95462	155.35414	2.18780	-221.63959	-185.60233	44.20090	429.49368	217.32869	48.12571	416.50525	11.09162	1129.23889	-669.58282	-154.10599	575.14740	-326.48114	5.72263	579.85382	-344.92361	-48.48269	600.95563	611.74249	108.20869	600.34930	596.69855	
4405	44.040	-251.82544	4.39245	-176.16713	155.43593	1.98890	-221.76079	-185.75299	45.11899	429.15942	217.73193	48.84796	416.25671	10.37996	1128.56812	-670.94611	-154.02113	574.68652	-326.73938	5.95265	579.69452	-345.22827	-48.76603	602.21130	612.12836	108.25183	601.41083	595.53906	
4406	44.050	-251.83818	4.16790	-176.27849	155.73248	1.64850	-222.11946	-185.67717	45.86852	428.92944	217.65785	49.71396	416.06100	10.07584	1127.77795	-672.01434	-154.91913	574.19641	-327.36179	4.26558	579.14050	-345.43149	-49.24121	602.97583	611.56683	106.81282	601.84839	595.29114	
